<?xml version="1.0" encoding="utf-8"?>
<!-- Generator: Adobe Illustrator 23.0.6, SVG Export Plug-In . SVG Version: 6.00 Build 0)  -->
<svg version="1.1" id="Layer_1" xmlns="http://www.w3.org/2000/svg" xmlns:xlink="http://www.w3.org/1999/xlink" x="0px" y="0px"
	 viewBox="0 0 1440 718" style="enable-background:new 0 0 1440 718;" xml:space="preserve">
<style type="text/css">
	.st0{fill-rule:evenodd;clip-rule:evenodd;fill:url(#SVGID_1_);}
	.st1{fill-rule:evenodd;clip-rule:evenodd;fill:url(#SVGID_2_);}
	.st2{fill-rule:evenodd;clip-rule:evenodd;fill:url(#SVGID_3_);}
	.st3{fill-rule:evenodd;clip-rule:evenodd;fill:url(#SVGID_4_);}
	.st4{fill-rule:evenodd;clip-rule:evenodd;fill:url(#SVGID_5_);}
	.st5{fill-rule:evenodd;clip-rule:evenodd;fill:url(#SVGID_6_);}
	.st6{fill-rule:evenodd;clip-rule:evenodd;fill:url(#SVGID_7_);}
	.st7{fill-rule:evenodd;clip-rule:evenodd;fill:url(#SVGID_8_);}
	.st8{fill-rule:evenodd;clip-rule:evenodd;fill:url(#SVGID_9_);}
	.st9{fill-rule:evenodd;clip-rule:evenodd;fill:url(#SVGID_10_);}
	.st10{fill-rule:evenodd;clip-rule:evenodd;fill:url(#SVGID_11_);}
	.st11{fill-rule:evenodd;clip-rule:evenodd;fill:url(#SVGID_12_);}
	.st12{fill-rule:evenodd;clip-rule:evenodd;fill:url(#SVGID_13_);}
	.st13{fill-rule:evenodd;clip-rule:evenodd;fill:url(#SVGID_14_);}
	.st14{fill-rule:evenodd;clip-rule:evenodd;fill:url(#SVGID_15_);}
	.st15{fill-rule:evenodd;clip-rule:evenodd;fill:url(#SVGID_16_);}
</style>
<linearGradient id="SVGID_1_" gradientUnits="userSpaceOnUse" x1="-253.2385" y1="892.7086" x2="-254.1509" y2="893.5378" gradientTransform="matrix(9.0796 36.8993 36.8993 -9.0796 -30530.8184 17589.5078)">
	<stop  offset="0" style="stop-color:#FFFFFF;stop-opacity:0"/>
	<stop  offset="1" style="stop-color:#F5367D"/>
</linearGradient>
<polygon class="st0" points="146.4,75.5 155.5,112.4 118.6,121.5 109.5,84.6 "/>
<linearGradient id="SVGID_2_" gradientUnits="userSpaceOnUse" x1="-234.2511" y1="906.2303" x2="-235.1214" y2="907.0214" gradientTransform="matrix(19.8131 32.4259 32.4259 -19.8131 -23717.998 25925.8008)">
	<stop  offset="0" style="stop-color:#FFFFFF;stop-opacity:0"/>
	<stop  offset="1" style="stop-color:#F5367D"/>
</linearGradient>
<path class="st1" d="M1042.4,307.3l16.7,27.3c0.9,1.4,0.4,3.3-1,4.1l-27.3,16.7c-1.4,0.9-3.3,0.4-4.1-1l-16.7-27.3
	c-0.9-1.4-0.4-3.3,1-4.1l27.3-16.7C1039.7,305.4,1041.5,305.9,1042.4,307.3z"/>
<linearGradient id="SVGID_3_" gradientUnits="userSpaceOnUse" x1="-188.7158" y1="930.8889" x2="-186.0373" y2="927.9374" gradientTransform="matrix(12.0208 12.0208 12.0208 -12.0208 -7668.7383 13849.2305)">
	<stop  offset="0" style="stop-color:#FFFFFF;stop-opacity:0"/>
	<stop  offset="1" style="stop-color:#F5367D"/>
</linearGradient>
<path class="st2" d="M1250.7,437.9l10.6,10.6c0.4,0.4,0.4,1,0,1.4l-10.6,10.6c-0.4,0.4-1,0.4-1.4,0l-10.6-10.6c-0.4-0.4-0.4-1,0-1.4
	l10.6-10.6C1249.6,437.5,1250.3,437.5,1250.7,437.9z"/>
<linearGradient id="SVGID_4_" gradientUnits="userSpaceOnUse" x1="-216.5395" y1="914.6353" x2="-213.7658" y2="911.5787" gradientTransform="matrix(12.0208 12.0208 12.0208 -12.0208 -7668.7383 13849.2305)">
	<stop  offset="0" style="stop-color:#FFFFFF;stop-opacity:0"/>
	<stop  offset="1" style="stop-color:#F5367D"/>
</linearGradient>
<polygon class="st3" points="720,300.2 732,312.2 720,324.3 708,312.2 "/>
<linearGradient id="SVGID_5_" gradientUnits="userSpaceOnUse" x1="-238.779" y1="897.717" x2="-239.2134" y2="898.1118" gradientTransform="matrix(26.8701 26.8701 26.8701 -26.8701 -17025.2383 30971.9961)">
	<stop  offset="0" style="stop-color:#FFFFFF;stop-opacity:0"/>
	<stop  offset="1" style="stop-color:#C9F0FF"/>
</linearGradient>
<line class="st4" x1="666" y1="425.4" x2="692.8" y2="398.6"/>
<linearGradient id="SVGID_6_" gradientUnits="userSpaceOnUse" x1="-235.535" y1="900.129" x2="-236.4053" y2="900.92" gradientTransform="matrix(26.8701 26.8701 26.8701 -26.8701 -17025.2383 30971.9961)">
	<stop  offset="0" style="stop-color:#FFFFFF;stop-opacity:0"/>
	<stop  offset="1" style="stop-color:#F5367D"/>
</linearGradient>
<path class="st5" d="M832.4,387.3l22.6,22.6c1.2,1.2,1.2,3.1,0,4.2l-22.6,22.6c-1.2,1.2-3.1,1.2-4.2,0l-22.6-22.6
	c-1.2-1.2-1.2-3.1,0-4.2l22.6-22.6C829.4,386.1,831.3,386.1,832.4,387.3z"/>
<linearGradient id="SVGID_7_" gradientUnits="userSpaceOnUse" x1="-244.6667" y1="883.3511" x2="-245.537" y2="884.1421" gradientTransform="matrix(32.6146 19.5009 19.5009 -32.6146 -9107.9463 34260.9414)">
	<stop  offset="0" style="stop-color:#FFFFFF;stop-opacity:0"/>
	<stop  offset="1" style="stop-color:#F5367D"/>
</linearGradient>
<path class="st6" d="M121.6,612.3l27.5,16.4c1.4,0.9,1.9,2.7,1,4.1l-16.4,27.5c-0.9,1.4-2.7,1.9-4.1,1l-27.5-16.4
	c-1.4-0.9-1.9-2.7-1-4.1l16.4-27.5C118.3,611.9,120.1,611.4,121.6,612.3z"/>
<linearGradient id="SVGID_8_" gradientUnits="userSpaceOnUse" x1="736.0626" y1="555.5616" x2="719.015" y2="198.1897">
	<stop  offset="0" style="stop-color:#FFFFFF;stop-opacity:0"/>
	<stop  offset="1" style="stop-color:#F5367D"/>
</linearGradient>
<polygon class="st7" points="1440,0 1440,24.5 205.4,378.8 2.4,437 0,437.7 0,321.3 9.8,315.9 572.2,0 "/>
<linearGradient id="SVGID_9_" gradientUnits="userSpaceOnUse" x1="646.7565" y1="919.4578" x2="627.5726" y2="517.3029">
	<stop  offset="0" style="stop-color:#FFFFFF;stop-opacity:0"/>
	<stop  offset="1" style="stop-color:#F5367D"/>
</linearGradient>
<polygon class="st8" points="1260.8,718 419.5,718 2.4,437 0,435.4 0,321.3 9.8,315.9 205.4,378.8 "/>
<linearGradient id="SVGID_10_" gradientUnits="userSpaceOnUse" x1="-216.1883" y1="904.1469" x2="-213.4146" y2="901.0904" gradientTransform="matrix(12.0208 12.0208 12.0208 -12.0208 -7668.7383 13849.2305)">
	<stop  offset="0" style="stop-color:#FFFFFF;stop-opacity:0"/>
	<stop  offset="1" style="stop-color:#F5367D"/>
</linearGradient>
<polygon class="st9" points="598.1,430.5 610.2,442.5 598.1,454.6 586.1,442.5 "/>
<linearGradient id="SVGID_11_" gradientUnits="userSpaceOnUse" x1="-240.9756" y1="912.2811" x2="-238.2019" y2="909.2245" gradientTransform="matrix(12.0208 12.0208 12.0208 -12.0208 -7668.7383 13849.2305)">
	<stop  offset="0" style="stop-color:#FFFFFF;stop-opacity:0"/>
	<stop  offset="1" style="stop-color:#F5367D"/>
</linearGradient>
<polygon class="st10" points="398,34.8 410,46.8 398,58.8 385.9,46.8 "/>
<linearGradient id="SVGID_12_" gradientUnits="userSpaceOnUse" x1="-228.0902" y1="904.4664" x2="-228.9605" y2="905.2574" gradientTransform="matrix(19.8131 32.4259 32.4259 -19.8131 -23717.998 25925.8008)">
	<stop  offset="0" style="stop-color:#FFFFFF;stop-opacity:0"/>
	<stop  offset="1" style="stop-color:#F5367D"/>
</linearGradient>
<path class="st11" d="M1107.2,542l16.7,27.3c0.9,1.4,0.4,3.3-1,4.1l-27.3,16.7c-1.4,0.9-3.3,0.4-4.1-1l-16.7-27.3
	c-0.9-1.4-0.4-3.3,1-4.1l27.3-16.7C1104.5,540.1,1106.4,540.6,1107.2,542z"/>
<linearGradient id="SVGID_13_" gradientUnits="userSpaceOnUse" x1="-251.1957" y1="886.4102" x2="-252.066" y2="887.2012" gradientTransform="matrix(19.8131 32.4259 32.4259 -19.8131 -23717.998 25925.8008)">
	<stop  offset="0" style="stop-color:#FFFFFF;stop-opacity:0"/>
	<stop  offset="1" style="stop-color:#F5367D"/>
</linearGradient>
<path class="st12" d="M64,150.5l16.7,27.3c0.9,1.4,0.4,3.3-1,4.1l-27.3,16.7c-1.4,0.9-3.3,0.4-4.1-1l-16.7-27.3
	c-0.9-1.4-0.4-3.3,1-4.1l27.3-16.7C61.2,148.7,63.1,149.1,64,150.5z"/>
<linearGradient id="SVGID_14_" gradientUnits="userSpaceOnUse" x1="-233.3613" y1="876.7401" x2="-230.5876" y2="873.6835" gradientTransform="matrix(12.0208 12.0208 12.0208 -12.0208 -7668.7383 13849.2305)">
	<stop  offset="0" style="stop-color:#FFFFFF;stop-opacity:0"/>
	<stop  offset="1" style="stop-color:#F5367D"/>
</linearGradient>
<polygon class="st13" points="62.3,553.5 74.3,565.6 62.3,577.6 50.2,565.6 "/>
<linearGradient id="SVGID_15_" gradientUnits="userSpaceOnUse" x1="-228.4323" y1="871.2977" x2="-225.6585" y2="868.2411" gradientTransform="matrix(12.0208 12.0208 12.0208 -12.0208 -7668.7383 13849.2305)">
	<stop  offset="0" style="stop-color:#FFFFFF;stop-opacity:0"/>
	<stop  offset="1" style="stop-color:#F5367D"/>
</linearGradient>
<polygon class="st14" points="56.1,678.2 68.1,690.2 56.1,702.2 44.1,690.2 "/>
<linearGradient id="SVGID_16_" gradientUnits="userSpaceOnUse" x1="-222.1574" y1="880.1965" x2="-219.3837" y2="877.1399" gradientTransform="matrix(12.0208 12.0208 12.0208 -12.0208 -7668.7383 13849.2305)">
	<stop  offset="0" style="stop-color:#FFFFFF;stop-opacity:0"/>
	<stop  offset="1" style="stop-color:#F5367D"/>
</linearGradient>
<polygon class="st15" points="238.5,646.7 250.5,658.7 238.5,670.7 226.5,658.7 "/>
</svg>
