<svg xmlns="http://www.w3.org/2000/svg" xmlns:xlink="http://www.w3.org/1999/xlink" viewBox="0 0 1440 718"><defs><style>.cls-1{fill:url(#linear-gradient);}.cls-2{fill:url(#linear-gradient-2);}.cls-3{fill:url(#linear-gradient-3);}.cls-4{fill:url(#linear-gradient-4);}.cls-5{fill:url(#linear-gradient-5);}.cls-6{fill:url(#linear-gradient-6);}.cls-7{fill:url(#linear-gradient-7);}.cls-8,.cls-9{fill-rule:evenodd;}.cls-8{fill:url(#linear-gradient-8);}.cls-9{fill:url(#linear-gradient-9);}.cls-10{fill:url(#linear-gradient-10);}.cls-11{fill:url(#linear-gradient-11);}.cls-12{fill:url(#linear-gradient-12);}.cls-13{fill:url(#linear-gradient-13);}.cls-14{fill:url(#linear-gradient-14);}.cls-15{fill:url(#linear-gradient-15);}.cls-16{fill:url(#linear-gradient-16);}</style><linearGradient id="linear-gradient" x1="-253.24" y1="892.71" x2="-254.15" y2="893.54" gradientTransform="matrix(0, 38, 38, 0, -33821.91, 9756.25)" gradientUnits="userSpaceOnUse"><stop offset="0" stop-color="#fff" stop-opacity="0"/><stop offset="1" stop-color="#f5367d"/></linearGradient><linearGradient id="linear-gradient-2" x1="-234.25" y1="906.23" x2="-235.12" y2="907.02" gradientTransform="matrix(0, 38, 38, 0, -33432.31, 9265.45)" xlink:href="#linear-gradient"/><linearGradient id="linear-gradient-3" x1="-188.72" y1="930.89" x2="-186.04" y2="927.94" gradientTransform="matrix(0, 17, 17, 0, -14531.74, 3618)" xlink:href="#linear-gradient"/><linearGradient id="linear-gradient-4" x1="-216.54" y1="914.64" x2="-213.77" y2="911.58" gradientTransform="matrix(0, 17, 17, 0, -14783.83, 3952.6)" xlink:href="#linear-gradient"/><linearGradient id="linear-gradient-5" x1="-238.78" y1="897.72" x2="-239.21" y2="898.11" gradientTransform="matrix(26.87, 26.87, 26.87, -26.87, -17025.24, 30972)" gradientUnits="userSpaceOnUse"><stop offset="0" stop-color="#fff" stop-opacity="0"/><stop offset="1" stop-color="#c9f0ff"/></linearGradient><linearGradient id="linear-gradient-6" x1="-235.53" y1="900.13" x2="-236.41" y2="900.92" gradientTransform="matrix(0, 38, 38, 0, -33404.65, 9395.4)" xlink:href="#linear-gradient"/><linearGradient id="linear-gradient-7" x1="-244.67" y1="883.35" x2="-245.54" y2="884.14" gradientTransform="matrix(0, 38, 38, 0, -33471.86, 9967.18)" xlink:href="#linear-gradient"/><linearGradient id="linear-gradient-8" x1="736.06" y1="555.56" x2="719.01" y2="198.19" gradientTransform="matrix(1, 0, 0, 1, 0, 0)" xlink:href="#linear-gradient"/><linearGradient id="linear-gradient-9" x1="646.76" y1="919.46" x2="627.57" y2="517.3" gradientTransform="matrix(1, 0, 0, 1, 0, 0)" xlink:href="#linear-gradient"/><linearGradient id="linear-gradient-10" x1="-216.19" y1="904.15" x2="-213.41" y2="901.09" gradientTransform="matrix(0, 17, 17, 0, -14727.39, 4076.93)" xlink:href="#linear-gradient"/><linearGradient id="linear-gradient-11" x1="-240.98" y1="912.28" x2="-238.2" y2="909.22" gradientTransform="matrix(0, 17, 17, 0, -15065.85, 4102.57)" xlink:href="#linear-gradient"/><linearGradient id="linear-gradient-12" x1="-228.09" y1="904.47" x2="-228.96" y2="905.26" gradientTransform="matrix(0, 38, 38, 0, -33300.41, 9266.06)" xlink:href="#linear-gradient"/><linearGradient id="linear-gradient-13" x1="-251.2" y1="886.41" x2="-252.07" y2="887.2" gradientTransform="matrix(0, 38, 38, 0, -33657.56, 9752.6)" xlink:href="#linear-gradient"/><linearGradient id="linear-gradient-14" x1="-233.36" y1="876.74" x2="-230.59" y2="873.68" gradientTransform="matrix(0, 17, 17, 0, -14797.36, 4491.89)" xlink:href="#linear-gradient"/><linearGradient id="linear-gradient-15" x1="-228.43" y1="871.3" x2="-225.66" y2="868.24" gradientTransform="matrix(0, 17, 17, 0, -14711.01, 4532.77)" xlink:href="#linear-gradient"/><linearGradient id="linear-gradient-16" x1="-222.16" y1="880.2" x2="-219.38" y2="877.14" gradientTransform="matrix(0, 17, 17, 0, -14679.89, 4394.56)" xlink:href="#linear-gradient"/></defs><title>hero3Asset 2</title><g id="Layer_2" data-name="Layer 2"><g id="Layer_1-2" data-name="Layer 1"><rect class="cls-1" x="113.53" y="79.52" width="38" height="38" transform="translate(-19.7 34.52) rotate(-13.82)"/><rect class="cls-2" x="1015.5" y="311.83" width="38" height="38" rx="3" transform="translate(-20.75 587.92) rotate(-31.43)"/><rect class="cls-3" x="1241.45" y="440.73" width="17" height="17" rx="1" transform="translate(48.44 1015.42) rotate(-45)"/><rect class="cls-4" x="711.5" y="303.74" width="17" height="17" transform="translate(-9.9 600.57) rotate(-45)"/><line class="cls-5" x1="665.96" y1="425.44" x2="692.84" y2="398.56"/><rect class="cls-6" x="811.31" y="393" width="38" height="38" rx="3" transform="translate(-48.14 707.79) rotate(-45)"/><rect class="cls-7" x="106.54" y="617.78" width="38" height="38" rx="3" transform="translate(-485.42 417.75) rotate(-59.12)"/><polygon class="cls-8" points="1440 0 1440 24.46 205.38 378.75 2.41 436.99 0 437.68 0 321.35 9.76 315.87 572.24 0 1440 0"/><polygon class="cls-9" points="1260.81 718 419.47 718 2.41 436.99 0 435.36 0 321.35 9.76 315.87 205.38 378.75 1260.81 718"/><rect class="cls-10" x="589.64" y="434.04" width="17" height="17" transform="translate(-137.73 552.57) rotate(-45)"/><rect class="cls-11" x="389.46" y="38.29" width="17" height="17" transform="translate(83.47 295.1) rotate(-45)"/><rect class="cls-12" x="1080.37" y="546.56" width="38" height="38" rx="3" transform="translate(-133.62 656.17) rotate(-31.43)"/><rect class="cls-13" x="37.09" y="155.09" width="38" height="38" rx="3" transform="matrix(0.85, -0.52, 0.52, 0.85, -82.54, 54.78)"/><rect class="cls-14" x="53.76" y="557.06" width="17" height="17" transform="translate(-381.67 209.67) rotate(-45)"/><rect class="cls-15" x="47.59" y="681.73" width="17" height="17" transform="translate(-471.64 241.82) rotate(-45)"/><rect class="cls-16" x="229.99" y="650.19" width="17" height="17" transform="translate(-395.91 361.56) rotate(-45)"/></g></g></svg>