<svg xmlns="http://www.w3.org/2000/svg" xmlns:xlink="http://www.w3.org/1999/xlink" viewBox="0 0 1440 738"><defs><style>.cls-1,.cls-2,.cls-3,.cls-4{fill:#f5367c;}.cls-2,.cls-3{stroke-width:10px;opacity:0.54;isolation:isolate;}.cls-2{stroke:url(#linear-gradient);}.cls-3{stroke:url(#linear-gradient-2);}.cls-4{fill-rule:evenodd;}</style><linearGradient id="linear-gradient" x1="-232.04" y1="915.31" x2="-227.91" y2="918.2" gradientTransform="matrix(24.71, 14.26, 14.26, -24.71, -6132.69, 26242.76)" gradientUnits="userSpaceOnUse"><stop offset="0" stop-color="#fff" stop-opacity="0"/><stop offset="1" stop-color="#c9f0ff"/></linearGradient><linearGradient id="linear-gradient-2" x1="-233.62" y1="917.72" x2="-231.99" y2="918.71" gradientTransform="matrix(40.55, 23.41, 23.41, -40.55, -11255.51, 42880.13)" xlink:href="#linear-gradient"/></defs><title>hero2Asset 1@4zxc</title><g id="Layer_2" data-name="Layer 2"><g id="Layer_1-2" data-name="Layer 1"><rect class="cls-1" x="955.87" y="574.87" width="38" height="38" rx="3" transform="translate(-134.4 863.28) rotate(-45)"/><rect class="cls-1" x="507.52" y="361.04" width="17" height="17" rx="1" transform="translate(-110.17 473.12) rotate(-45)"/><path class="cls-2" d="M1337.68,293.74,1336,321.12a2,2,0,0,1-2.12,1.87,2.09,2.09,0,0,1-.88-.26l-21.24-12.27a2,2,0,0,1-.73-2.73,2.12,2.12,0,0,1,.63-.67L1334.59,292a2,2,0,0,1,3.09,1.79Z"/><path class="cls-3" d="M852.85,177.23l-2.47,41.09a5,5,0,0,1-5.29,4.7,5.08,5.08,0,0,1-2.2-.67L811,203.94a5,5,0,0,1-1.83-6.83,4.92,4.92,0,0,1,1.57-1.67l34.36-22.68a5,5,0,0,1,6.92,1.42,4.92,4.92,0,0,1,.82,3Z"/><path class="cls-4" d="M0,428Q58.43,289.07,170.69,328C283,367,322.83,419.61,383.28,328,399,304.26,393.15,253.5,354,251.48s-9.25-46.31,58.15-55-18.1-70.07-69.4-87.9C289.48,90.06,357.91,41.3,363.2,22.67q12.87-45.34-363.2,0Z"/><path class="cls-4" d="M1440,738q-131.25-1.54-193.55-60.47c-62.31-58.94-61.8-186.39-194.64-179.42S777,476.57,827.41,396.29,995.54,326,1023.67,195.09s-202.23,27.17-240.28-59.84c-14.86-34,20.41-38.56-34.28-76.79C731,45.77,722.18,27.38,725.8,20.23c1.75-3.45,7.93,1.58,14.37,0,20.47-5,63.76,0,107.64,0H1440Z"/><path class="cls-4" d="M528.54,570.4c27.2-14.17,3.46,18.1,19.33,18.1s67.55-27.24,87.19-19.24,41.83,68.11-22.17,45.71c-11.89-2.76-15.42,7.54-35.66,23.54s-55.7-31.43-70.86-26.74c-76.36-10.48,5.45-29.21,14.22-31Z"/></g></g></svg>